<?xml version="1.0" standalone="no"?>
<!DOCTYPE svg PUBLIC "-//W3C//DTD SVG 20010904//EN"
 "http://www.w3.org/TR/2001/REC-SVG-20010904/DTD/svg10.dtd">
<svg version="1.0" xmlns="http://www.w3.org/2000/svg"
 width="1250.000000pt" height="1017.000000pt" viewBox="0 0 1250.000000 1017.000000"
 preserveAspectRatio="xMidYMid meet">

<g transform="translate(0.000000,1017.000000) scale(0.100000,-0.100000)"
fill="#000000" stroke="none">
<path d="M6133 7979 c-18 -12 -33 -25 -33 -29 0 -5 -16 -26 -35 -47 -19 -21
-35 -41 -35 -45 0 -5 -4 -8 -9 -8 -4 0 -11 20 -14 45 -5 53 -10 60 -33 51 -13
-5 -15 -15 -9 -52 3 -26 9 -53 12 -60 3 -10 -5 -16 -26 -20 -36 -7 -38 -12
-14 -29 15 -11 12 -15 -28 -35 -24 -13 -39 -25 -32 -27 7 -3 34 8 60 24 32 18
63 28 93 29 84 3 236 27 215 34 -11 4 -44 5 -72 2 -68 -6 -81 15 -34 58 17 16
31 35 31 42 0 7 7 26 15 41 8 15 10 25 5 22 -6 -4 -10 1 -10 9 0 21 -8 20 -47
-5z"/>
<path d="M5776 7925 l-9 -30 -8 25 -7 25 -7 -23 c-6 -18 -10 -20 -16 -10 -6 9
-9 6 -9 -10 0 -13 -4 -20 -10 -17 -5 3 -10 -1 -10 -10 0 -9 -4 -13 -10 -10 -5
3 -10 1 -10 -5 0 -6 -4 -9 -10 -5 -5 3 -15 -14 -21 -37 -7 -24 -25 -55 -39
-70 -26 -26 -62 -91 -75 -133 -6 -19 -7 -19 -26 5 -10 14 -18 37 -17 51 3 35
-52 145 -63 127 -7 -10 -9 -10 -9 2 -1 12 -3 11 -11 -3 -31 -53 -21 -106 49
-249 2 -4 -24 -12 -57 -19 -34 -6 -61 -14 -61 -18 0 -12 17 -32 26 -30 19 3
34 -1 34 -11 0 -5 -5 -10 -11 -10 -30 0 -149 -42 -144 -51 11 -17 49 -10 139
26 56 22 113 36 153 39 39 3 86 15 120 31 30 14 63 25 73 25 9 0 43 9 76 21
32 11 91 27 129 34 39 7 58 14 42 14 -15 1 -36 6 -46 13 -15 9 -27 7 -64 -10
-62 -29 -91 -35 -132 -28 -31 6 -35 11 -35 37 0 21 12 42 40 73 22 24 40 52
40 63 0 19 23 112 36 148 7 17 6 18 -8 7 -15 -12 -17 -9 -20 20 l-3 33 -9 -30z"/>
<path d="M5003 7837 c-13 -21 -12 -41 3 -86 13 -40 13 -44 -3 -57 -10 -8 -29
-16 -43 -20 -14 -3 -34 -9 -45 -14 -19 -9 -19 -9 3 -16 33 -10 27 -18 -30 -43
-34 -15 -47 -25 -36 -28 9 -2 41 10 72 27 68 39 119 42 168 12 19 -12 40 -22
45 -22 6 0 22 -9 37 -21 14 -11 26 -18 26 -15 0 3 11 1 25 -4 20 -7 27 -6 34
9 8 14 3 25 -27 54 -21 21 -45 37 -54 37 -44 0 -20 20 49 40 67 20 74 24 54
32 -13 5 -28 5 -35 0 -28 -23 -75 -30 -118 -20 -47 12 -58 22 -58 53 0 26 -33
89 -48 92 -6 2 -14 -3 -19 -10z"/>
<path d="M3403 7155 l-48 -98 -14 57 c-18 78 -24 64 -10 -23 10 -62 10 -80 -4
-124 -9 -29 -19 -69 -23 -90 -6 -37 -24 -62 -24 -34 0 8 -18 50 -41 93 -22 44
-50 97 -61 119 -12 22 -29 63 -40 90 -16 44 -17 29 -2 -30 4 -15 -2 -12 -25
13 -17 18 -31 30 -31 27 0 -10 25 -50 46 -75 12 -14 30 -38 40 -54 l18 -29
-21 12 c-12 6 -25 16 -28 21 -3 6 -11 10 -16 10 -6 0 17 -25 49 -55 49 -45 64
-68 85 -124 56 -151 44 -286 -45 -489 -54 -124 -75 -179 -88 -227 -52 -188
-53 -199 -54 -366 l-1 -166 -22 30 c-12 16 -27 53 -33 81 -14 67 -29 107 -70
190 -35 68 -50 90 -122 170 -37 42 -151 116 -178 116 -8 0 8 -12 37 -27 60
-33 97 -63 140 -118 49 -62 103 -164 103 -195 0 -16 7 -36 16 -44 16 -16 23
-37 50 -134 8 -30 27 -72 42 -95 56 -82 124 -213 137 -263 7 -27 16 -84 20
-126 6 -68 5 -77 -12 -86 -10 -6 -31 -8 -46 -5 -21 4 -26 2 -22 -10 5 -10 -13
-25 -62 -52 -129 -71 -170 -103 -202 -159 -58 -104 -205 -236 -262 -236 -9 0
-32 -24 -51 -52 -147 -217 -184 -360 -175 -666 6 -192 16 -244 67 -348 35 -71
118 -160 203 -218 31 -22 56 -40 55 -41 -2 -2 -28 1 -58 6 -75 10 -197 10
-243 0 -64 -15 -103 -49 -141 -127 -77 -152 -79 -165 -84 -416 -3 -183 -1
-238 12 -290 52 -206 199 -367 410 -449 212 -82 523 -100 741 -44 309 81 592
348 706 666 l32 90 31 -29 c48 -45 121 -91 189 -120 55 -23 76 -26 177 -26
118 -1 118 0 223 52 4 2 7 -5 8 -15 0 -10 7 6 15 36 43 159 158 265 360 330
144 47 270 57 519 40 273 -18 426 -16 484 5 56 21 61 14 61 -80 0 -84 -3 -87
-134 -106 -73 -10 -116 -9 -327 10 -134 13 -260 24 -279 27 -30 3 -32 2 -16
-8 40 -25 88 -71 102 -99 14 -27 13 -33 -48 -156 -156 -314 -268 -691 -268
-904 0 -42 -4 -79 -9 -82 -9 -6 -65 33 -101 72 -21 22 -26 40 -31 112 -5 59
-6 32 -5 -90 1 -199 4 -208 93 -291 127 -118 222 -126 297 -26 16 21 21 50 27
148 4 67 10 123 12 126 3 2 16 -16 31 -41 60 -102 181 -176 300 -184 86 -5
133 7 208 52 l57 34 23 -25 c56 -62 187 -86 270 -50 36 15 40 15 85 -5 97 -43
224 -10 325 86 l45 42 42 -38 c82 -72 220 -100 288 -58 l32 19 57 -29 c77 -41
175 -42 252 -4 95 47 181 164 258 350 43 103 44 110 44 213 0 148 -2 151 -59
148 -44 -2 -47 0 -64 35 -20 42 -26 91 -14 126 7 19 5 22 -16 22 -40 0 -100
72 -108 130 -3 21 3 29 41 48 24 12 60 22 80 22 35 0 36 1 32 33 -5 44 14 113
38 137 10 10 16 20 14 23 -4 4 90 87 99 87 3 0 9 -15 12 -32 9 -39 45 -114 72
-146 14 -18 31 -24 71 -27 87 -6 94 -11 90 -58 -3 -41 -2 -41 42 -55 25 -8 83
-14 130 -15 92 -2 190 23 282 69 l47 24 44 -63 c52 -73 127 -134 212 -174 52
-24 72 -27 150 -26 65 0 106 6 149 22 33 11 60 21 61 21 2 0 6 -11 9 -25 4
-14 33 -52 65 -85 66 -67 151 -113 241 -130 165 -32 378 58 605 254 128 110
257 241 271 273 10 23 14 79 14 195 0 150 -2 167 -24 214 -30 64 -77 118 -130
148 -87 50 -149 42 -225 -29 l-46 -43 0 241 c0 256 -2 269 -53 376 -26 54
-100 138 -140 160 -20 11 -25 7 -58 -45 l-36 -56 21 -15 c36 -24 68 -63 98
-117 26 -48 28 -58 28 -172 0 -144 -7 -159 -68 -150 l-40 7 28 -37 c33 -44 74
-139 75 -173 0 -13 -29 -67 -64 -120 -79 -118 -146 -240 -146 -265 0 -16 5
-18 45 -13 91 13 205 88 360 238 62 60 118 109 126 109 34 -1 109 -87 109
-125 0 -23 -58 -82 -210 -216 -144 -126 -245 -191 -357 -228 -119 -40 -234
-17 -316 63 -48 47 -87 132 -87 192 0 20 -4 34 -8 32 -4 -1 -51 -25 -105 -52
-152 -76 -257 -74 -362 6 -74 57 -138 161 -159 261 l-7 28 -42 -34 c-155 -122
-319 -171 -451 -133 -72 21 -127 70 -163 144 -24 51 -27 68 -27 152 1 82 5
105 30 165 17 39 49 98 71 131 45 66 223 267 249 282 11 6 -6 11 -56 16 -88 8
-84 11 -180 -128 -39 -56 -89 -128 -112 -161 -161 -234 -268 -357 -361 -421
-54 -36 -141 -64 -201 -64 -123 0 -221 95 -241 233 l-7 49 -32 -39 c-92 -113
-199 -181 -303 -190 -128 -12 -223 69 -263 224 l-10 42 -88 -88 c-103 -104
-186 -150 -285 -160 -145 -15 -243 24 -363 145 l-81 81 1 -101 1 -101 -36 -3
c-41 -3 -138 26 -193 59 -28 16 -39 32 -49 67 l-14 46 -41 -60 c-88 -130 -175
-193 -278 -202 -112 -9 -205 35 -267 128 l-34 50 -26 -38 c-56 -85 -125 -158
-178 -187 -48 -27 -63 -30 -132 -29 -172 4 -322 125 -388 315 -44 127 -36 347
18 504 120 343 363 528 648 494 102 -13 172 -58 232 -153 35 -54 75 -164 68
-186 -3 -11 -22 -24 -41 -30 l-35 -12 63 -38 c70 -42 122 -105 121 -147 0 -15
-8 -82 -17 -148 -17 -124 -20 -204 -10 -242 6 -21 8 -22 34 -8 41 21 103 96
143 173 49 94 141 360 162 467 15 83 75 320 123 490 51 182 107 446 118 553 6
67 9 74 32 83 100 38 362 -126 362 -226 0 -34 -42 -179 -119 -407 l-60 -178
44 30 c57 39 118 65 188 80 53 11 61 10 110 -13 69 -32 140 -97 167 -153 32
-65 22 -118 -61 -324 -57 -142 -71 -189 -76 -248 -6 -72 -6 -73 -31 -67 -68
17 -161 73 -222 135 -100 99 -114 170 -56 283 19 37 30 65 25 61 -5 -3 -46
-47 -89 -97 -95 -108 -114 -155 -114 -272 1 -98 24 -155 86 -216 63 -62 128
-89 213 -89 160 0 300 120 433 370 45 85 55 116 96 300 25 113 48 224 52 247
9 60 37 87 83 78 80 -15 186 -91 241 -172 28 -43 31 -54 26 -98 -3 -27 -26
-102 -51 -164 -91 -229 -155 -461 -155 -564 0 -35 2 -38 23 -32 93 29 201 152
307 350 24 44 46 85 50 90 13 16 121 384 144 487 4 15 17 35 29 43 68 44 252
-86 303 -214 19 -49 17 -59 -41 -186 -149 -320 -242 -625 -191 -625 70 0 200
126 323 314 48 72 99 145 114 161 14 17 46 58 69 93 39 58 41 65 30 92 -7 18
-11 55 -8 90 4 54 11 69 70 158 37 53 74 114 84 135 10 20 22 37 27 37 14 0
99 -60 140 -99 50 -46 77 -100 77 -150 0 -55 -16 -90 -64 -134 -36 -33 -38
-37 -16 -32 42 11 200 75 303 123 l97 45 57 -50 c81 -70 96 -94 95 -147 -1
-77 -48 -142 -257 -356 -203 -207 -240 -250 -274 -317 -27 -54 -27 -69 3 -77
45 -11 159 43 242 114 42 36 143 163 199 250 116 179 321 326 508 364 32 7 58
15 58 19 -2 28 -26 99 -38 109 -18 15 -94 0 -184 -36 -35 -14 -65 -23 -67 -21
-2 2 17 37 42 78 51 81 53 87 31 87 -8 0 -26 -20 -41 -45 -14 -25 -29 -44 -32
-41 -10 10 57 131 101 181 55 63 183 268 207 332 41 110 53 215 51 468 -1 188
2 254 14 300 35 134 126 247 226 280 28 10 48 19 46 21 -2 3 -17 0 -32 -6 -44
-17 -40 -5 10 26 25 16 58 40 73 52 l27 24 -32 -16 c-45 -22 -47 -20 -22 17
14 20 -1 9 -38 -28 -32 -33 -91 -90 -129 -126 l-69 -66 7 89 c6 73 12 99 37
144 38 67 40 81 4 31 -24 -33 -28 -36 -34 -20 -4 10 -8 41 -9 68 -1 28 -6 61
-10 75 -6 16 -7 -2 -4 -50 5 -72 4 -74 -11 -47 -24 42 -25 32 -3 -30 17 -49
19 -71 13 -148 -7 -85 -8 -88 -21 -60 -7 17 -15 39 -18 49 -4 10 -8 17 -11 14
-2 -2 2 -26 10 -53 19 -60 19 -125 1 -150 -7 -11 -24 -49 -36 -85 -22 -61 -24
-77 -22 -265 3 -214 -4 -327 -19 -304 -5 8 -9 22 -9 32 0 10 -15 51 -33 90
-41 88 -109 160 -180 192 -67 29 -111 66 -127 105 -7 17 -15 29 -17 26 -3 -2
0 -14 7 -25 14 -27 3 -27 -29 1 -14 13 -6 1 19 -26 25 -27 74 -62 111 -81 72
-37 127 -91 158 -156 23 -48 22 -55 -8 -39 -12 6 -21 8 -21 5 0 -3 16 -13 35
-21 20 -8 35 -21 35 -31 0 -9 8 -26 19 -37 21 -24 35 -82 21 -91 -6 -3 -10
-31 -10 -60 0 -36 -8 -73 -24 -109 -13 -30 -22 -57 -19 -60 3 -2 1 -11 -3 -18
-5 -7 -9 -20 -9 -28 0 -8 -10 -16 -22 -18 -12 -2 -25 -11 -28 -21 -3 -10 -47
-58 -98 -107 -51 -49 -110 -117 -131 -151 l-38 -61 -66 64 c-72 70 -148 114
-196 114 -16 0 -61 -16 -99 -36 -38 -19 -70 -34 -71 -32 -2 2 -14 28 -28 58
-36 78 -86 131 -189 200 -78 52 -96 60 -137 60 -69 0 -105 -27 -146 -109 -19
-38 -56 -98 -81 -134 -69 -100 -88 -149 -95 -257 l-7 -95 -1 101 c-2 94 -4
106 -37 170 -19 38 -54 89 -79 114 l-45 45 -1 273 0 272 360 0 360 0 0 110 0
110 -316 0 -315 0 7 46 c7 47 7 47 -20 40 -14 -3 -37 -9 -51 -12 l-25 -6 0
126 0 126 24 0 c23 0 25 4 28 53 l3 52 167 7 c148 6 509 38 609 54 36 6 36 6
43 67 3 33 6 81 6 107 l0 48 53 12 c104 25 112 31 131 101 10 35 20 72 23 82
4 17 2 17 -35 -2 -94 -48 -364 -113 -627 -150 -381 -54 -693 -65 -1850 -66
-1012 0 -1328 8 -1665 41 -278 27 -619 93 -765 149 -103 40 -103 40 -76 16 21
-19 22 -23 9 -34 -13 -10 -14 -19 -4 -57 l11 -45 81 -24 82 -25 6 -59 c3 -33
6 -81 6 -107 l0 -47 53 -7 c164 -22 444 -47 595 -53 l172 -6 0 -54 c0 -50 1
-53 25 -53 l25 0 0 -126 0 -126 -27 7 c-82 19 -75 23 -67 -34 l7 -51 -318 0
-318 0 -31 24 c-159 121 -407 138 -670 47 -75 -27 -76 -26 -76 7 0 47 -29 131
-86 247 -30 61 -54 118 -54 127 0 27 -11 48 -26 48 -20 0 -7 220 17 282 11 27
14 50 9 53 -16 10 22 74 51 87 15 7 30 20 32 30 3 12 15 18 34 19 15 0 37 5
48 10 15 7 11 7 -15 3 l-35 -6 44 45 c63 65 126 96 215 106 84 10 162 34 197
63 l24 19 -32 -15 c-45 -22 -61 -20 -35 4 37 34 25 34 -14 0 -47 -41 -65 -47
-167 -58 -63 -7 -99 -17 -143 -41 -65 -34 -143 -104 -182 -163 -13 -21 -26
-38 -28 -38 -16 0 48 202 101 320 61 137 76 208 74 344 l-2 113 36 55 c20 30
46 63 57 73 11 10 20 23 20 28 0 14 -58 -41 -82 -78 l-20 -30 6 30 c23 106 52
178 88 219 43 49 51 72 13 36 -32 -30 -31 -24 5 57 47 102 28 86 -27 -22z
m-143 -1035 c-8 -5 -17 -7 -19 -4 -3 3 1 9 9 14 8 5 17 7 19 4 3 -3 -1 -9 -9
-14z m2820 -785 c0 -125 -4 -215 -9 -215 -5 0 -42 18 -83 39 -186 99 -352 95
-411 -11 l-22 -40 -125 6 c-69 3 -160 6 -203 6 l-78 0 7 46 c7 47 7 47 -20 40
-14 -3 -37 -9 -51 -12 l-25 -6 0 126 0 126 25 0 c24 0 25 3 25 55 l0 55 485 0
485 0 0 -215z m1238 158 c3 -49 5 -53 28 -53 l24 0 0 -126 c0 -115 -2 -125
-17 -120 -10 2 -33 8 -52 11 l-34 7 6 -46 7 -46 -444 0 c-245 0 -451 -3 -460
-6 -13 -5 -16 20 -18 211 -2 119 -1 219 1 221 3 2 219 3 480 2 l476 -3 3 -52z
m-3564 -393 c121 -18 199 -67 261 -165 54 -85 69 -145 69 -280 -1 -122 -14
-195 -55 -292 -27 -64 -92 -98 -189 -98 -68 0 -84 4 -152 38 -42 20 -88 51
-103 68 l-26 31 60 62 c122 127 203 298 175 371 -17 44 -98 55 -208 30 -310
-72 -626 -275 -718 -462 -59 -120 -40 -227 59 -327 71 -72 118 -100 393 -237
284 -141 380 -201 467 -292 73 -76 111 -139 135 -226 22 -80 23 -128 3 -222
-31 -146 -76 -244 -170 -372 -83 -112 -194 -205 -320 -267 -131 -65 -192 -80
-357 -87 -446 -19 -740 150 -787 452 -15 99 0 179 52 285 l42 85 99 3 c140 4
299 -28 312 -63 4 -9 -18 -43 -54 -87 -136 -164 -145 -266 -34 -377 59 -59
124 -81 236 -81 170 0 401 88 508 193 175 173 166 429 -21 583 -80 67 -152
104 -371 194 -207 85 -253 108 -340 165 -124 83 -184 160 -216 280 -63 234
107 567 403 789 242 182 495 285 768 315 6 0 41 -4 79 -9z m5520 -186 c4 -10
1 -14 -6 -12 -15 5 -23 28 -10 28 5 0 13 -7 16 -16z m-4494 -252 l0 -237 -90
3 c-151 6 -298 -37 -415 -122 l-50 -36 -5 277 c-4 184 -10 287 -18 306 -23 54
-34 52 283 49 l295 -3 0 -237z m696 -8 c-31 -120 -63 -244 -71 -274 -28 -99
-92 -364 -105 -430 -6 -36 -19 -82 -27 -102 l-16 -37 -27 42 c-14 23 -34 48
-43 56 -9 7 -17 25 -17 38 0 42 -30 134 -71 216 l-39 78 0 329 0 330 233 2
c206 3 232 1 235 -13 2 -9 -22 -115 -52 -235z m1894 32 l0 -214 -34 -6 c-34
-7 -82 -45 -111 -90 -9 -13 -26 -66 -39 -118 -22 -90 -23 -92 -35 -63 -33 80
-50 106 -121 176 -118 117 -239 166 -355 145 -70 -13 -145 -112 -145 -189 0
-15 -15 -4 -57 43 -66 73 -158 136 -221 152 -31 8 -42 15 -38 25 3 8 6 92 6
186 l0 172 575 -3 575 -2 0 -214z m1822 -328 c-7 -7 -12 -8 -12 -2 0 14 12 26
19 19 2 -3 -1 -11 -7 -17z m-1737 -1549 c5 -15 11 -16 31 -9 13 5 37 7 54 4
25 -6 30 -11 30 -36 0 -18 -10 -39 -26 -55 -17 -17 -22 -28 -15 -33 15 -9 31
-67 24 -86 -6 -16 -55 -19 -82 -4 -14 7 -24 4 -41 -15 -25 -27 -68 -33 -88
-13 -7 7 -12 29 -12 49 0 29 -5 39 -21 44 -11 4 -28 23 -36 43 -14 33 -13 37
3 49 10 7 30 13 46 13 24 0 28 4 28 29 0 16 4 42 10 56 l10 26 40 -22 c22 -12
42 -31 45 -40z m-1675 -356 c35 -24 53 -48 99 -128 52 -90 64 -163 46 -267
-40 -232 -202 -361 -361 -286 -202 94 -231 405 -56 599 78 87 208 126 272 82z
m301 7 c15 0 89 -72 105 -102 13 -26 13 -36 -7 -106 -51 -180 -80 -354 -61
-366 20 -12 84 68 127 159 57 116 79 187 100 310 10 55 21 104 25 108 4 5 28
0 53 -11 47 -21 107 -89 107 -122 0 -13 -65 -277 -106 -430 -7 -25 -7 -25 25
5 85 80 281 456 281 540 0 8 4 15 9 15 12 0 71 -68 72 -83 1 -22 18 27 18 56
1 21 6 27 24 27 28 0 101 -46 123 -78 l16 -23 38 35 c102 92 178 88 237 -11
29 -50 28 -60 -23 -262 -28 -108 -42 -231 -27 -231 28 0 99 92 144 187 41 85
52 100 68 96 11 -3 27 -13 36 -23 16 -17 16 -22 -4 -76 -52 -138 -106 -229
-170 -287 -37 -33 -47 -37 -95 -37 -61 0 -102 26 -134 84 -26 48 -21 193 12
344 15 68 26 126 23 128 -8 8 -127 -150 -154 -204 -23 -47 -26 -68 -31 -192
l-5 -140 -29 0 c-33 0 -63 13 -95 43 -21 18 -23 30 -23 106 0 78 20 257 35
321 4 14 -20 -25 -53 -87 -113 -213 -226 -359 -307 -397 -73 -35 -142 -10
-165 59 l-12 35 -42 -43 c-78 -81 -176 -83 -223 -6 -12 19 -26 59 -32 89 -11
57 -12 46 43 425 19 129 30 159 52 151 9 -3 20 -6 25 -6z"/>
<path d="M3132 4920 c-304 -166 -495 -370 -595 -637 -19 -48 -14 -53 56 -54
23 0 83 -6 133 -12 l92 -12 4 75 c6 99 42 172 128 260 121 123 289 227 485
299 44 17 75 30 69 31 -6 0 -31 -7 -55 -15 -40 -14 -47 -14 -105 5 -34 12 -73
23 -85 25 -13 3 -44 11 -69 18 l-45 13 40 22 c22 11 36 21 30 21 -5 1 -43 -17
-83 -39z"/>
<path d="M3265 4930 c-8 -13 3 -30 18 -30 8 0 7 3 -2 9 -7 5 -10 14 -7 20 4 6
5 11 2 11 -3 0 -8 -4 -11 -10z"/>
<path d="M3568 4883 c7 -3 16 -2 19 1 4 3 -2 6 -13 5 -11 0 -14 -3 -6 -6z"/>
<path d="M3528 4873 c7 -3 16 -2 19 1 4 3 -2 6 -13 5 -11 0 -14 -3 -6 -6z"/>
<path d="M3813 4785 c0 -27 2 -38 4 -22 2 15 2 37 0 50 -2 12 -4 0 -4 -28z"/>
<path d="M3780 4668 c-29 -68 -95 -160 -154 -219 l-46 -46 32 -32 c51 -50 133
-84 211 -89 57 -4 75 0 121 22 48 23 56 32 75 79 30 77 51 168 51 224 l0 50
-57 13 c-32 8 -82 22 -112 32 -85 28 -94 26 -121 -34z"/>
<path d="M2502 4115 c0 -16 2 -22 5 -12 2 9 2 23 0 30 -3 6 -5 -1 -5 -18z"/>
<path d="M3911 3264 c0 -11 3 -14 6 -6 3 7 2 16 -1 19 -3 4 -6 -2 -5 -13z"/>
<path d="M3911 3154 c0 -11 3 -14 6 -6 3 7 2 16 -1 19 -3 4 -6 -2 -5 -13z"/>
<path d="M2612 2820 c0 -14 2 -19 5 -12 2 6 2 18 0 25 -3 6 -5 1 -5 -13z"/>
<path d="M5701 2338 c-79 -39 -134 -157 -135 -288 0 -107 31 -160 95 -160 73
0 138 90 164 225 22 113 1 163 -35 88 -8 -17 -23 -36 -32 -42 -15 -9 -20 -6
-31 17 -33 65 -30 117 9 157 26 25 12 26 -35 3z"/>
<path d="M3020 7161 c24 -20 40 -26 40 -16 0 2 -15 12 -32 20 l-33 16 25 -20z"/>
<path d="M3694 6648 c-10 -24 -45 -83 -76 -131 -32 -48 -58 -89 -58 -91 0 -2
-13 -18 -30 -36 l-30 -32 5 33 5 34 -15 -39 c-9 -23 -11 -44 -6 -53 6 -12 18
-2 53 43 25 33 60 83 78 112 33 54 86 97 162 132 24 11 32 17 18 14 -14 -4
-46 -16 -73 -29 l-47 -22 6 21 c4 11 13 34 21 49 8 16 13 31 10 33 -2 2 -12
-15 -23 -38z"/>
<path d="M3714 6368 l-19 -23 23 19 c21 18 27 26 19 26 -2 0 -12 -10 -23 -22z"/>
<path d="M2875 6050 c12 -41 27 -60 20 -25 -4 17 -11 35 -17 40 -7 7 -8 2 -3
-15z"/>
<path d="M9756 5721 c-3 -4 6 -6 19 -3 14 2 25 6 25 8 0 8 -39 4 -44 -5z"/>
<path d="M8987 5477 c35 -37 65 -79 68 -92 3 -14 7 -37 10 -52 15 -73 49 -173
59 -170 6 2 12 21 13 43 1 31 0 34 -6 14 -7 -25 -7 -25 -20 10 -8 19 -15 42
-16 50 -1 8 -10 46 -19 83 -9 38 -17 83 -17 100 l-1 32 -7 -28 -6 -28 -30 31
c-16 18 -43 41 -60 53 -18 12 -4 -7 32 -46z"/>
<path d="M8940 5275 c0 -5 5 -17 10 -25 5 -8 10 -10 10 -5 0 6 -5 17 -10 25
-5 8 -10 11 -10 5z"/>
<path d="M9702 4770 c-32 -9 -79 -28 -105 -42 -45 -26 -60 -25 -35 0 9 9 9 12
0 12 -7 0 -12 -4 -12 -10 0 -5 -36 -46 -80 -92 -44 -45 -80 -86 -80 -91 0 -11
50 0 67 15 7 6 13 16 13 23 0 22 115 120 175 149 30 14 75 30 100 35 25 5 48
11 52 14 9 10 -33 4 -95 -13z"/>
<path d="M5535 4280 c-4 -17 -5 -34 -2 -36 2 -3 7 10 11 27 8 42 0 50 -9 9z"/>
<path d="M4553 4266 c-133 -31 -264 -125 -350 -251 -60 -89 -76 -124 -61 -130
71 -25 237 -84 251 -90 12 -5 17 -2 17 8 0 8 18 50 40 94 84 168 229 249 329
185 25 -17 64 -73 76 -112 4 -14 13 -28 19 -32 19 -13 101 -9 121 6 19 14 19
15 1 72 -21 66 -69 145 -112 186 -70 66 -207 92 -331 64z m222 -47 c51 -23 65
-34 103 -88 47 -65 39 -69 -24 -12 -106 97 -241 107 -409 30 -27 -13 -54 -25
-60 -27 -5 -3 3 10 20 27 83 88 258 122 370 70z"/>
<path d="M5493 4103 c-17 -70 -36 -155 -43 -188 -12 -66 -15 -74 -69 -225 -44
-120 -85 -213 -112 -251 -22 -31 -20 -34 59 -73 28 -14 52 -32 52 -39 0 -6 5
-4 11 6 13 23 29 22 29 -2 0 -13 30 -37 103 -80 56 -33 114 -68 129 -78 15 -9
29 -15 32 -12 3 2 0 51 -6 108 -8 80 -8 105 2 114 10 9 14 9 17 -1 11 -30 88
-116 141 -157 83 -66 148 -89 252 -88 52 0 102 7 128 16 83 31 207 132 264
215 32 47 48 47 48 0 0 -95 96 -229 174 -244 111 -20 230 29 330 138 36 39 66
74 66 79 0 5 7 9 15 9 9 0 16 -14 20 -37 15 -98 55 -170 118 -217 24 -18 43
-21 115 -21 76 0 95 4 146 29 102 50 201 155 359 382 l56 80 -31 -4 c-17 -3
-28 -1 -25 4 3 5 -5 9 -16 10 -12 0 -38 4 -57 8 -35 7 -36 7 -95 -74 -98 -135
-214 -229 -282 -230 -20 0 -23 5 -23 40 0 56 68 296 100 352 13 22 13 38 1 19
-8 -13 -32 -9 -153 26 -83 24 -142 45 -140 52 4 19 -8 12 -18 -11 -6 -13 -14
-30 -20 -38 -5 -8 -31 -51 -57 -95 -104 -178 -216 -285 -298 -285 -22 0 -25 4
-25 38 1 20 5 55 9 77 33 159 46 207 77 295 39 113 38 111 20 104 -14 -6 -264
63 -282 77 -8 7 -14 -2 -18 -28 -4 -21 -28 -78 -53 -128 -95 -187 -205 -315
-320 -372 -50 -24 -70 -28 -143 -28 -76 0 -91 3 -139 30 -58 32 -119 95 -147
153 -15 29 -19 60 -19 142 0 95 3 110 27 160 16 30 66 97 113 149 46 52 83 96
81 98 -1 2 -16 5 -32 7 -16 3 -63 14 -104 26 -41 12 -91 26 -110 31 -19 6 -48
14 -65 19 -178 53 -156 62 -192 -87z"/>
<path d="M5992 4024 c-68 -137 -56 -214 49 -308 40 -36 180 -116 203 -116 2 0
7 24 10 54 9 69 25 119 75 240 23 54 40 101 38 103 -3 2 -13 5 -23 8 -30 6
-124 32 -184 51 -54 17 -62 19 -87 22 -6 1 -18 8 -26 16 -12 12 -20 2 -55 -70z"/>
<path d="M4648 4076 c-56 -20 -84 -41 -129 -98 -87 -111 -139 -286 -139 -474
0 -101 18 -169 58 -223 23 -31 28 -33 66 -28 32 4 49 15 76 45 42 47 106 165
154 286 32 78 36 99 36 175 -1 49 -7 103 -15 126 -8 22 -15 43 -15 48 0 4 25
7 55 7 30 0 55 2 55 5 0 3 -9 22 -20 43 -51 95 -98 118 -182 88z"/>
<path d="M6381 4044 c0 -11 3 -14 6 -6 3 7 2 16 -1 19 -3 4 -6 -2 -5 -13z"/>
<path d="M6612 3970 c0 -14 2 -19 5 -12 2 6 2 18 0 25 -3 6 -5 1 -5 -13z"/>
<path d="M4767 3924 c-3 -4 -2 -15 4 -26 6 -11 9 -71 7 -143 -3 -106 -1 -125
12 -126 8 0 78 -31 155 -68 l140 -67 18 124 18 125 -29 36 c-55 69 -169 130
-273 145 -25 4 -48 4 -52 0z"/>
<path d="M6916 3893 c-6 -14 -5 -15 5 -6 7 7 10 15 7 18 -3 3 -9 -2 -12 -12z"/>
<path d="M9403 3681 c-159 -40 -341 -229 -427 -443 -30 -76 -37 -171 -15 -206
17 -28 70 -38 119 -23 46 14 168 100 265 186 58 51 78 78 114 151 26 53 44
104 45 127 1 44 21 49 74 17 18 -11 35 -20 38 -20 11 0 -2 115 -17 144 -26 54
-120 86 -196 67z"/>
<path d="M4042 3490 c0 -19 2 -27 5 -17 2 9 2 25 0 35 -3 9 -5 1 -5 -18z"/>
<path d="M7996 3442 c-44 -89 -60 -158 -54 -247 8 -122 76 -217 176 -245 48
-13 147 -13 197 1 69 19 178 78 243 130 40 32 64 45 66 37 2 -7 9 -38 16 -68
17 -75 43 -124 97 -181 103 -110 225 -128 376 -56 43 20 92 46 108 58 17 12
31 20 33 18 1 -2 8 -37 14 -77 19 -112 62 -172 161 -219 47 -22 62 -25 133
-21 71 4 90 10 175 54 92 47 217 139 315 232 27 25 46 47 44 49 -2 2 -43 10
-92 18 l-88 14 -51 -39 c-80 -61 -162 -107 -216 -120 -56 -14 -107 -6 -91 13
5 7 13 26 16 42 4 17 22 57 42 89 19 32 34 60 32 61 -2 1 -86 21 -188 45 -102
23 -192 46 -200 50 -10 5 -39 -8 -89 -41 -79 -52 -121 -65 -169 -54 -51 11
-67 38 -67 116 l0 69 -170 56 c-93 31 -174 60 -179 65 -5 4 -37 -12 -71 -36
-81 -58 -140 -85 -191 -85 -58 0 -70 18 -49 72 9 24 31 63 48 88 l33 44 -115
47 c-64 26 -137 56 -164 68 l-47 20 -34 -67z"/>
<path d="M5185 2880 c-239 -26 -345 -146 -345 -391 l0 -99 -35 0 c-19 0 -52 7
-74 16 -38 15 -40 18 -46 72 -11 99 -12 99 -14 2 -1 -139 5 -167 43 -185 17
-8 44 -25 60 -38 l29 -23 -32 -36 -31 -36 42 -21 c37 -18 44 -19 58 -6 23 21
35 19 55 -11 16 -25 21 -26 76 -21 l59 5 -4 -51 c-5 -52 -5 -52 10 13 60 257
176 612 253 769 11 25 21 46 21 48 0 4 -41 2 -125 -7z"/>
<path d="M5013 1965 c0 -22 2 -30 4 -17 2 12 2 30 0 40 -3 9 -5 -1 -4 -23z"/>
</g>
</svg>
